<?xml version="1.0" encoding="utf-8"?>
<svg version="1.1"
	 xmlns="http://www.w3.org/2000/svg" xmlns:xlink="http://www.w3.org/1999/xlink"
	 x="0px" y="0px" width="16px" height="16px" viewBox="0 0 16 16" enable-background="new 0 0 16 16" xml:space="preserve">
<defs>
</defs>
<g>
	<path fill="#007D7D" d="M1.077,13.625c-0.387,0-0.702-0.354-0.702-0.791V1.167c0-0.437,0.315-0.792,0.702-0.792h9.693
		c0.387,0,0.701,0.355,0.701,0.792v11.667c0,0.437-0.314,0.791-0.701,0.791H1.077z"/>
	<g>
		<path fill="#FFFFFF" d="M10.77,0.75c0.177,0,0.326,0.191,0.326,0.417v11.667c0,0.226-0.149,0.416-0.326,0.416H1.077
			c-0.177,0-0.327-0.19-0.327-0.416V1.167c0-0.226,0.149-0.417,0.327-0.417H10.77 M10.77,0H1.077C0.483,0,0,0.522,0,1.167v11.667
			C0,13.479,0.483,14,1.077,14h9.693c0.595,0,1.076-0.521,1.076-1.166V1.167C11.846,0.522,11.364,0,10.77,0L10.77,0z"/>
	</g>
</g>
<g>
	<path fill="#A6E2DF" d="M12.5,15.625c-1.723,0-3.125-1.402-3.125-3.125s1.402-3.125,3.125-3.125s3.125,1.402,3.125,3.125
		S14.223,15.625,12.5,15.625z"/>
	<g>
		<path fill="#FFFFFF" d="M12.5,9.75c1.517,0,2.75,1.233,2.75,2.75s-1.233,2.75-2.75,2.75s-2.75-1.233-2.75-2.75
			S10.983,9.75,12.5,9.75 M12.5,9C10.565,9,9,10.565,9,12.5c0,1.934,1.565,3.5,3.5,3.5s3.5-1.566,3.5-3.5C16,10.565,14.435,9,12.5,9
			L12.5,9z"/>
	</g>
</g>
<line fill="none" stroke="#333333" stroke-width="0.75" stroke-miterlimit="10" x1="10.183" y1="12.477" x2="14.803" y2="12.477"/>
<rect x="3.367" y="3.622" fill="#CCCCCC" stroke="#000000" stroke-width="0.5" stroke-miterlimit="10" width="5" height="5"/>
</svg>
